<?xml version="1.0" encoding="UTF-8"?>
<svg version="1.1" xmlns="http://www.w3.org/2000/svg" width="240" height="240">
<path d="M0 0 C4.41104002 3.70928365 8.69868866 7.53306977 12.9375 11.4375 C18.57114355 16.62107524 24.26079928 21.71246606 30.1328125 26.625 C31.27631265 27.58300997 32.41953689 28.54134937 33.5625 29.5 C34.12839844 29.97445557 34.69429687 30.44891113 35.27734375 30.93774414 C38.83032339 33.94103123 42.18938732 37.03356669 45.33984375 40.46484375 C47.09924041 42.1789833 47.09924041 42.1789833 49.84765625 43.84765625 C54.21234334 46.82775859 57.57920212 50.53686658 61.21875 54.34375 C63.98155009 56.9823793 66.81789517 58.90405362 70 61 C71.49895951 62.41654249 72.95937486 63.87517411 74.375 65.375 C77.86601065 68.97269689 81.43290261 71.98040705 85.56640625 74.80859375 C86.03949219 75.20175781 86.51257813 75.59492187 87 76 C87 76.66 87 77.32 87 78 C80.73 79.65 74.46 81.3 68 83 C73.7398878 91.99766195 80.32989619 100.29792568 87.0859375 108.546875 C89 111 89 111 90.93359375 113.93359375 C93.85493433 118.26866437 97.2646614 122.13028858 100.66015625 126.09765625 C106 132.721202 106 132.721202 106 136 C100.07834845 136.39853217 94.16461823 136.68704235 88.23266602 136.87890625 C86.22086635 136.95890726 84.20998398 137.06777317 82.20141602 137.20703125 C65.96784271 138.30351298 65.96784271 138.30351298 61.02041626 134.46353149 C57.60000085 130.69261948 55.20263008 126.46550362 52.97164917 121.91319275 C51.6575247 119.32566067 50.0253248 117.02471412 48.3125 114.6875 C47.77367187 113.92050781 47.23484375 113.15351563 46.6796875 112.36328125 C42.45918358 106.42513038 38.18168199 100.53239614 33.75 94.75 C31.88716212 92.2898391 30.25711244 89.81785531 28.75 87.125 C27.19177015 84.01079671 27.19177015 84.01079671 25 82 C25 81.01 25 80.02 25 79 C31.6 76.69 38.2 74.38 45 72 C43.98808594 70.57558594 42.97617188 69.15117188 41.93359375 67.68359375 C38.13038777 62.25085219 34.58182997 56.68163954 31.0625 51.0625 C26.77692915 44.26105299 22.46700391 37.58476781 17.55078125 31.21875 C16 29 16 29 14.7109375 26.3359375 C12.30902257 21.65275177 9.312772 17.44175105 6.3125 13.125 C5.40274414 11.80628906 5.40274414 11.80628906 4.47460938 10.4609375 C2.98647706 8.30490328 1.49487066 6.15136511 0 4 C-0.4125 4.66644531 -0.825 5.33289062 -1.25 6.01953125 C-4.40024564 11.04726704 -7.63743227 15.93187456 -11.1875 20.6875 C-13.38189461 23.65515747 -15.3516303 26.45107389 -16.875 29.8125 C-19.04164747 34.52302374 -22.18377249 38.55819556 -25.22607422 42.72583008 C-27.65577166 46.07034745 -29.92980155 49.41559926 -32 53 C-35.85559371 59.66371398 -40.48299175 65.77385349 -45 72 C-35.1 75.465 -35.1 75.465 -25 79 C-25 83.43851179 -25.71259425 84.10544775 -28.5234375 87.25390625 C-30.10723611 89.12681096 -31.41727456 91.06634869 -32.75 93.125 C-35.08323908 96.68999981 -37.54926978 100.10598725 -40.125 103.5 C-44.41645969 109.16153719 -48.52047951 114.93993801 -52.57470703 120.7734375 C-53.53684554 122.15026263 -54.52052346 123.51226348 -55.52416992 124.85913086 C-57.07608061 126.98868082 -57.07608061 126.98868082 -58.1887207 129.50219727 C-59.8667517 132.54274995 -61.07610003 134.07797521 -64 136 C-70.81482918 137.51863711 -78.01718798 136.841135 -84.9375 136.5625 C-86.88076708 136.51732281 -88.82413455 136.47626387 -90.76757812 136.43945312 C-95.51420631 136.34059573 -100.25599979 136.1854983 -105 136 C-105 132.14638643 -103.79164819 131.00037594 -101.5 127.9375 C-100.40558594 126.47183594 -100.40558594 126.47183594 -99.2890625 124.9765625 C-96.52799933 121.38623804 -93.71075054 117.84623417 -90.86328125 114.32421875 C-88.72306084 111.65455178 -86.6635713 108.93513958 -84.625 106.1875 C-83.38265833 104.51511698 -82.13090227 102.84972359 -80.875 101.1875 C-76.11350605 94.88173774 -71.47895729 88.50960995 -67 82 C-67.68964844 81.87882812 -68.37929687 81.75765625 -69.08984375 81.6328125 C-75.09799013 80.56140094 -81.05175157 79.36517177 -87 78 C-87 77.01 -87 76.02 -87 75 C-85.34765625 73.7109375 -85.34765625 73.7109375 -83.0625 72.375 C-78.41120193 69.4496553 -74.86829101 65.99323987 -71.07421875 62.046875 C-68.55737589 59.56321086 -65.99651635 57.85498631 -63 56 C-62.4225 55.4225 -61.845 54.845 -61.25 54.25 C-60.8375 53.8375 -60.425 53.425 -60 53 C-59.34 53 -58.68 53 -58 53 C-57.7834375 52.43796875 -57.566875 51.8759375 -57.34375 51.296875 C-55.54930872 48.22963235 -53.26107786 46.47339428 -50.5 44.25 C-49.5203125 43.45078125 -48.540625 42.6515625 -47.53125 41.828125 C-45 40 -45 40 -43 40 C-42.7834375 39.43796875 -42.566875 38.8759375 -42.34375 38.296875 C-40.54930872 35.22963235 -38.26107786 33.47339428 -35.5 31.25 C-34.5203125 30.45078125 -33.540625 29.6515625 -32.53125 28.828125 C-30 27 -30 27 -28 27 C-27.77183594 26.43667969 -27.54367188 25.87335938 -27.30859375 25.29296875 C-22.91893763 17.60124296 -13.26113952 11.47649134 -6.41015625 6.0078125 C-4.13541766 4.11281147 -2.05617601 2.12773666 0 0 Z " fill="#D82820" transform="translate(120,48)"/>
<path d="M0 0 C4.95388461 4.16576661 9.74472095 8.49062629 14.50024414 12.87988281 C18.12604269 16.22008176 21.81224141 19.47454811 25.57421875 22.66015625 C27 24 27 24 28 26 C25 24.5 25 24.5 22 23 C21.67 23.66 21.34 24.32 21 25 C20.34 25 19.68 25 19 25 C18.84346234 27.26024386 18.84346234 27.26024386 20.5625 29.9375 C22 33 22 33 21 36 C16.32490975 29.68231047 16.32490975 29.68231047 14.75 26.375 C12.31949882 21.68760487 9.32260545 17.45589928 6.3125 13.125 C5.70599609 12.24585938 5.09949219 11.36671875 4.47460938 10.4609375 C2.98647706 8.30490328 1.49487066 6.15136511 0 4 C-0.61875 4.99966797 -0.61875 4.99966797 -1.25 6.01953125 C-4.40024564 11.04726704 -7.63743227 15.93187456 -11.1875 20.6875 C-13.91212652 24.36914505 -16.08485864 27.92448974 -17.9921875 32.07421875 C-19.88153261 35.68447898 -22.46571961 38.82370191 -25 42 C-25.66 41.34 -26.32 40.68 -27 40 C-27 39.01 -27 38.02 -27 37 C-28.485 37.495 -28.485 37.495 -30 38 C-30.66 37.67 -31.32 37.34 -32 37 C-32 35.68 -32 34.36 -32 33 C-36.59801699 34.98550734 -39.08594242 36.94113408 -42 41 C-42.66 41.66 -43.32 42.32 -44 43 C-44.66 42.34 -45.32 41.68 -46 41 C-44.515 40.505 -44.515 40.505 -43 40 C-42.58234375 39.12601563 -42.58234375 39.12601563 -42.15625 38.234375 C-40.53560899 35.10259576 -38.23337645 33.45108736 -35.5 31.25 C-34.5203125 30.45078125 -33.540625 29.6515625 -32.53125 28.828125 C-30 27 -30 27 -28 27 C-27.77183594 26.43667969 -27.54367188 25.87335938 -27.30859375 25.29296875 C-22.91893763 17.60124296 -13.26113952 11.47649134 -6.41015625 6.0078125 C-4.13541766 4.11281147 -2.05617601 2.12773666 0 0 Z " fill="#D53E37" transform="translate(120,48)"/>
<path d="M0 0 C4.95388461 4.16576661 9.74472095 8.49062629 14.50024414 12.87988281 C18.12604269 16.22008176 21.81224141 19.47454811 25.57421875 22.66015625 C27 24 27 24 28 26 C26 25 24 24 22 23 C21.67 23.66 21.34 24.32 21 25 C20.34 25 19.68 25 19 25 C18.84346234 27.26024386 18.84346234 27.26024386 20.5625 29.9375 C22 33 22 33 21 36 C16.32490975 29.68231047 16.32490975 29.68231047 14.75 26.375 C12.31949882 21.68760487 9.32260545 17.45589928 6.3125 13.125 C5.40274414 11.80628906 5.40274414 11.80628906 4.47460938 10.4609375 C2.98647706 8.30490328 1.49487066 6.15136511 0 4 C-0.72316406 5.17369141 -0.72316406 5.17369141 -1.4609375 6.37109375 C-2.09257813 7.38300781 -2.72421875 8.39492188 -3.375 9.4375 C-4.00148438 10.44683594 -4.62796875 11.45617187 -5.2734375 12.49609375 C-7 15 -7 15 -9 16 C-8.54512809 13.4527173 -8.02046997 12.02702035 -6.4375 9.9375 C-4.70207654 8.00053972 -4.70207654 8.00053972 -5 5 C-2.5 2.3125 -2.5 2.3125 0 0 Z " fill="#D24C45" transform="translate(120,48)"/>
<path d="M0 0 C1.2065625 0.0309375 1.2065625 0.0309375 2.4375 0.0625 C1.4375 2.0625 1.4375 2.0625 -1.5625 4.0625 C3.83260305 11.11593391 9.25117611 18.14002668 14.84375 25.0390625 C16.4375 27.0625 16.4375 27.0625 18.4375 30.0625 C16.69140625 29.91015625 16.69140625 29.91015625 14.4375 29.0625 C12.40234375 26.55859375 12.40234375 26.55859375 10.375 23.5 C8.44352551 20.48989205 8.44352551 20.48989205 6.4375 18.0625 C5.4475 18.0625 4.4575 18.0625 3.4375 18.0625 C3.4375 17.4025 3.4375 16.7425 3.4375 16.0625 C2.7775 16.0625 2.1175 16.0625 1.4375 16.0625 C1.4375 15.4025 1.4375 14.7425 1.4375 14.0625 C0.7775 14.0625 0.1175 14.0625 -0.5625 14.0625 C-3.1125 4.0325 -3.1125 4.0325 -3.5625 1.0625 C-2.5625 0.0625 -2.5625 0.0625 0 0 Z " fill="#D62F25" transform="translate(189.5625,127.9375)"/>
<path d="M0 0 C3.66186662 3.37277189 5.08905121 5.22262802 7 10 C-6.53 10 -20.06 10 -34 10 C-34 9.67 -34 9.34 -34 9 C-22.12 9 -10.24 9 2 9 C2 5.20442119 1.49821059 3.37097383 0 0 Z " fill="#C42A26" transform="translate(219,174)"/>
<path d="M0 0 C1.98 1.65 3.96 3.3 6 5 C5.01 5.495 5.01 5.495 4 6 C3.67 6.99 3.34 7.98 3 9 C2.01 7.35 1.02 5.7 0 4 C-0.72316406 5.17369141 -0.72316406 5.17369141 -1.4609375 6.37109375 C-2.09257813 7.38300781 -2.72421875 8.39492188 -3.375 9.4375 C-4.00148438 10.44683594 -4.62796875 11.45617187 -5.2734375 12.49609375 C-7 15 -7 15 -9 16 C-8.54512809 13.4527173 -8.02046997 12.02702035 -6.4375 9.9375 C-4.70207654 8.00053972 -4.70207654 8.00053972 -5 5 C-2.5 2.3125 -2.5 2.3125 0 0 Z " fill="#C45E5A" transform="translate(120,48)"/>
<path d="M0 0 C0 1.33333333 0 2.66666667 0 4 C0.66 4.33 1.32 4.66 2 5 C2 5.33 2 5.66 2 6 C5.3 6.99 8.6 7.98 12 9 C11.67 9.66 11.34 10.32 11 11 C2.585 9.02 2.585 9.02 -6 7 C-6 6.01 -6 5.02 -6 4 C-3 1.8125 -3 1.8125 0 0 Z " fill="#D46A65" transform="translate(39,119)"/>
<path d="M0 0 C1.48555383 0.92734572 2.96327506 1.86724813 4.4375 2.8125 C5.26121094 3.33457031 6.08492187 3.85664062 6.93359375 4.39453125 C9 6 9 6 10 9 C6.7 9.66 3.4 10.32 0 11 C0 10.34 0 9.68 0 9 C0.66 9 1.32 9 2 9 C2.33 7.02 2.66 5.04 3 3 C1.68 2.67 0.36 2.34 -1 2 C-0.67 1.34 -0.34 0.68 0 0 Z " fill="#D05049" transform="translate(197,117)"/>
<path d="M0 0 C0.66 0.33 1.32 0.66 2 1 C-7.33603591 15.92630665 -7.33603591 15.92630665 -12 22 C-12.33 22 -12.66 22 -13 22 C-13 20.35 -13 18.7 -13 17 C-12.01 17 -11.02 17 -10 17 C-9.75507812 16.30519531 -9.51015625 15.61039063 -9.2578125 14.89453125 C-7.79749975 11.53399786 -5.93718222 8.71425133 -3.875 5.6875 C-3.15054688 4.61886719 -2.42609375 3.55023438 -1.6796875 2.44921875 C-0.84824219 1.23685547 -0.84824219 1.23685547 0 0 Z " fill="#CE6760" transform="translate(88,97)"/>
<path d="M0 0 C0.33 0.66 0.66 1.32 1 2 C-1.68721439 8.71803598 -6.38529785 12.66865834 -12 17 C-10.64340201 13.00086217 -8.87434915 10.45013089 -6 7.375 C-3.75561506 4.95733534 -1.83557682 2.75336523 0 0 Z " fill="#D15B57" transform="translate(44,143)"/>
<path d="M0 0 C0 3.77622631 -1.05213827 4.5913843 -3.4375 7.4375 C-5.81282727 10.2734968 -7.40315561 12.30965231 -8 16 C-9.32 15.67 -10.64 15.34 -12 15 C-10.37676928 12.87362766 -8.7515047 10.74886564 -7.125 8.625 C-6.66480469 8.02171875 -6.20460938 7.4184375 -5.73046875 6.796875 C-3.90627059 4.41748609 -2.12258788 2.12258788 0 0 Z " fill="#D46764" transform="translate(26,167)"/>
<path d="M0 0 C2.88575819 0.39803561 3.82189513 0.79009069 5.75 3.0625 C6.1625 3.701875 6.575 4.34125 7 5 C6.01 5 5.02 5 4 5 C4.66 6.98 5.32 8.96 6 11 C3.66475218 8.74259377 1.81294927 6.7194239 0 4 C0 2.68 0 1.36 0 0 Z " fill="#CE514B" transform="translate(124,54)"/>
<path d="M0 0 C0.99 0 1.98 0 3 0 C3 0.66 3 1.32 3 2 C3.61875 2.268125 4.2375 2.53625 4.875 2.8125 C7 4 7 4 9 7 C7.35 7.33 5.7 7.66 4 8 C4 7.34 4 6.68 4 6 C3.34 6 2.68 6 2 6 C1.34 4.02 0.68 2.04 0 0 Z " fill="#D6251C" transform="translate(128,59)"/>
<path d="M0 0 C4.58716587 4.44381694 8.78762713 9.20228499 13 14 C12.01 14.33 11.02 14.66 10 15 C8.32742872 12.87941855 6.66184582 10.75395924 5 8.625 C4.28457031 7.72007812 4.28457031 7.72007812 3.5546875 6.796875 C0 2.2265625 0 2.2265625 0 0 Z " fill="#D26665" transform="translate(195,143)"/>
<path d="M0 0 C1.65 0 3.3 0 5 0 C4 2 4 2 1 4 C3.475 7.465 3.475 7.465 6 11 C2.65836101 9.61725283 0.74233252 8.20955991 -1 5 C-0.6875 2.25 -0.6875 2.25 0 0 Z " fill="#D46B67" transform="translate(187,128)"/>
<path d="M0 0 C0.66 0 1.32 0 2 0 C1.33333333 1.33333333 0.66666667 2.66666667 0 4 C-0.433125 5.010625 -0.86625 6.02125 -1.3125 7.0625 C-3.17493616 10.30451849 -4.68375359 11.38669094 -8 13 C-6.44759763 8.03231242 -3.48945219 3.82132943 0 0 Z " fill="#DD7A79" transform="translate(53,130)"/>
<path d="M0 0 C2.96404505 2.80804268 5.44499019 5.18315774 7 9 C5.35 8.01 3.7 7.02 2 6 C1.67 6.99 1.34 7.98 1 9 C0.67 6.03 0.34 3.06 0 0 Z " fill="#C75C5B" transform="translate(212,165)"/>
<path d="M0 0 C0 0.66 0 1.32 0 2 C-1.32 2.33 -2.64 2.66 -4 3 C-4 3.66 -4 4.32 -4 5 C-5.98 5 -7.96 5 -10 5 C-10 4.34 -10 3.68 -10 3 C-8.70990357 2.49596232 -7.41786211 1.99690074 -6.125 1.5 C-5.04605469 1.08234375 -5.04605469 1.08234375 -3.9453125 0.65625 C-2 0 -2 0 0 0 Z " fill="#D4645E" transform="translate(155,124)"/>
<path d="M0 0 C4.82675589 2.41337795 7.69984002 5.86062408 11 10 C8.525 9.01 8.525 9.01 6 8 C6 7.34 6 6.68 6 6 C5.01 5.67 4.02 5.34 3 5 C1.3125 3.5625 1.3125 3.5625 0 2 C0 1.34 0 0.68 0 0 Z " fill="#D2756F" transform="translate(168,91)"/>
<path d="M0 0 C1.98 1.65 3.96 3.3 6 5 C5.01 5.495 5.01 5.495 4 6 C3.67 6.99 3.34 7.98 3 9 C1.68 6.36 0.36 3.72 -1 1 C-0.67 0.67 -0.34 0.34 0 0 Z " fill="#DA9C99" transform="translate(120,48)"/>
<path d="M0 0 C3.39417765 3.12621626 5.6062718 5.56541027 7 10 C5.35 9.67 3.7 9.34 2 9 C2 7.68 2 6.36 2 5 C1.38655243 3.31301918 0.72904086 1.64034193 0 0 Z " fill="#D15D5A" transform="translate(219,174)"/>
<path d="M0 0 C0.66 0.33 1.32 0.66 2 1 C-0.64 4.3 -3.28 7.6 -6 11 C-6.33 10.34 -6.66 9.68 -7 9 C-6.02180976 7.68677212 -5.0424189 6.37443848 -4.0625 5.0625 C-3.51722656 4.33160156 -2.97195312 3.60070312 -2.41015625 2.84765625 C-1 1 -1 1 0 0 Z " fill="#D17470" transform="translate(86,140)"/>
<path d="M0 0 C-1.36983503 3.16115776 -1.9890638 3.9927092 -5 6 C-5.99 5.67 -6.98 5.34 -8 5 C-2.25 0 -2.25 0 0 0 Z " fill="#D0635F" transform="translate(55,107)"/>
<path d="M0 0 C2.0625 0.4375 2.0625 0.4375 4 1 C4.33 2.32 4.66 3.64 5 5 C3.35 4.67 1.7 4.34 0 4 C-0.33 3.01 -0.66 2.02 -1 1 C-0.67 0.67 -0.34 0.34 0 0 Z " fill="#C8352F" transform="translate(205,158)"/>
<path d="M0 0 C3.53600465 1.91135386 5.78972846 3.62642766 8 7 C4.66272214 5.82744291 2.22562513 4.81131596 0 2 C0 1.34 0 0.68 0 0 Z " fill="#D66D67" transform="translate(185,106)"/>
<path d="M0 0 C0.99 0 1.98 0 3 0 C2.67 1.65 2.34 3.3 2 5 C0.68 5 -0.64 5 -2 5 C-1.34 3.35 -0.68 1.7 0 0 Z " fill="#DB241D" transform="translate(107,62)"/>
</svg>
